<?xml version="1.0" standalone="no"?>
<svg version="1.0" xmlns="http://www.w3.org/2000/svg"
 width="550.000000pt" height="550.000000pt" viewBox="0 0 550.000000 550.000000"
 preserveAspectRatio="xMidYMid meet">
<g transform="translate(0.000000,550.000000) scale(0.100000,-0.100000)"
fill="#209cee" stroke="none">
<path d="M2702 5052 c-26 -26 -30 -86 -6 -120 19 -28 11 -56 -22 -71 -18 -8
-24 -17 -21 -29 3 -9 14 -39 23 -65 16 -45 16 -55 1 -144 -9 -52 -23 -103 -31
-112 -14 -16 -19 -50 -40 -294 -2 -20 -10 -45 -20 -55 -15 -18 -15 -20 4 -37
27 -25 25 -45 -5 -45 -32 0 -33 -27 -2 -41 21 -10 23 -15 17 -55 -4 -24 -15
-53 -24 -63 -14 -15 -21 -59 -34 -192 -12 -115 -21 -174 -30 -177 -16 -5 -15
-20 3 -38 20 -20 19 -48 -5 -234 -11 -85 -20 -159 -20 -163 0 -4 -12 -19 -27
-33 -25 -23 -25 -25 -8 -38 17 -12 17 -19 -9 -161 -14 -82 -30 -153 -35 -158
-5 -5 -7 -31 -4 -57 4 -37 2 -48 -10 -53 -21 -8 -238 10 -247 20 -4 4 -13 26
-20 48 -7 22 -25 61 -41 88 -31 50 -36 76 -18 94 8 8 2 13 -23 18 -43 10 -53
16 -38 25 9 5 -15 72 -85 241 -54 129 -116 275 -138 324 -23 50 -69 158 -102
240 -49 120 -65 150 -81 150 -10 0 -18 -4 -16 -10 9 -39 188 -552 224 -645 99
-254 122 -329 109 -356 -15 -34 -14 -41 9 -47 27 -7 65 -94 49 -113 -8 -10 -7
-19 5 -36 24 -33 20 -38 -26 -38 -145 -1 -297 -68 -409 -179 -95 -95 -140
-183 -168 -325 -11 -54 -27 -109 -37 -123 -16 -25 -12 -34 19 -45 4 -2 3 -28
-3 -57 -6 -30 -7 -95 -4 -145 6 -90 5 -96 -115 -612 -67 -287 -128 -544 -136
-571 -17 -57 -37 -78 -82 -88 -35 -7 -58 -28 -48 -44 15 -25 244 -69 286 -56
29 9 21 47 -14 63 -15 8 -33 25 -38 40 -9 24 27 230 191 1067 14 71 33 126 65
190 25 50 45 95 45 100 0 6 5 27 11 48 8 30 15 37 34 37 23 0 25 4 25 44 0 58
16 100 63 169 29 42 52 63 84 77 25 11 47 19 51 18 4 -1 22 2 40 6 59 14 172
-25 172 -59 0 -7 9 -20 20 -30 10 -9 27 -40 36 -69 74 -226 243 -376 489 -432
214 -49 642 -1 841 96 76 37 154 117 179 185 10 28 29 62 41 77 37 46 49 96
49 208 0 126 -26 210 -85 271 -33 35 -42 39 -86 39 -53 0 -120 32 -108 51 4 6
1 15 -6 19 -18 11 23 76 61 96 22 11 28 20 24 33 -3 12 10 39 38 77 91 122
155 196 185 214 18 11 32 24 32 29 0 6 39 54 86 108 50 56 98 123 114 158 35
73 115 185 134 185 29 0 41 -108 34 -306 -15 -431 -20 -508 -37 -539 -10 -19
-16 -56 -17 -100 0 -38 -6 -131 -12 -205 -25 -289 -25 -293 -2 -318 17 -18 32
-22 79 -22 47 0 61 4 79 23 l22 24 -21 209 c-11 115 -24 243 -28 284 -4 41
-14 89 -22 105 -14 26 -15 63 -8 292 4 144 10 306 14 360 5 76 3 110 -10 153
-27 92 -28 104 -8 129 11 13 35 29 53 35 29 9 81 65 80 85 -1 3 -12 19 -25 36
-24 29 -25 29 -52 13 -27 -16 -30 -15 -53 3 -14 10 -28 19 -31 19 -8 0 -22
-36 -39 -98 -9 -35 -18 -46 -45 -58 -19 -8 -46 -14 -59 -14 -14 0 -48 -9 -76
-20 -66 -26 -135 -26 -180 0 -19 12 -48 26 -64 33 -29 12 -86 108 -86 145 0
10 -13 31 -30 47 -46 44 -38 84 33 144 42 38 50 86 19 114 -26 23 -61 21 -70
-3 -7 -19 -9 -19 -27 -6 -11 9 -14 16 -7 16 6 0 12 9 12 19 0 14 -5 18 -21 14
-35 -10 -51 -47 -50 -118 1 -60 -1 -66 -27 -81 -15 -9 -43 -34 -63 -56 -30
-33 -48 -42 -115 -60 -110 -28 -198 -23 -247 15 -20 15 -42 38 -49 50 -15 25
-18 556 -5 741 7 104 6 111 -19 165 -54 116 -55 125 -28 162 46 62 24 148 -30
119 -28 -15 -63 -6 -68 18 -3 15 -6 14 -26 -6z m114 -1110 c-12 -11 -126 86
-126 107 1 25 15 51 31 56 10 4 19 11 19 17 0 5 8 22 19 36 10 15 27 56 37 92
l19 65 3 -184 c1 -101 0 -186 -2 -189z m-45 -40 l58 -58 -5 -55 c-4 -30 -15
-74 -25 -98 -14 -32 -17 -57 -13 -95 3 -28 -2 -120 -10 -205 -29 -278 -25
-294 70 -296 51 -2 62 1 77 21 16 22 16 33 2 186 -9 90 -20 192 -26 227 -5 34
-7 71 -4 81 3 10 -3 44 -15 76 -22 65 -26 104 -9 104 6 0 23 -9 38 -20 52 -36
156 -50 235 -29 107 27 149 44 163 66 32 48 23 12 -18 -76 -23 -50 -52 -97
-65 -105 -12 -9 -25 -26 -29 -38 -4 -13 -22 -61 -40 -108 -18 -47 -39 -99 -45
-117 -7 -18 -20 -35 -30 -38 -15 -5 -16 -10 -7 -34 12 -33 2 -65 -74 -228 -33
-71 -55 -106 -72 -114 -18 -8 -22 -17 -20 -37 5 -31 -126 -306 -150 -315 -8
-3 -17 -24 -21 -46 -5 -35 -10 -41 -30 -41 -26 0 -132 37 -153 53 -17 13 -16
45 2 97 9 25 11 48 7 54 -5 6 -3 65 4 131 6 66 10 134 7 152 -5 29 -3 33 16
33 25 0 26 3 4 36 -15 24 -15 35 1 167 27 221 38 273 59 269 22 -4 21 0 -3 46
-16 30 -18 38 -6 40 29 6 64 290 43 350 -15 41 23 25 84 -36z m698 -138 c11
-14 23 -42 27 -63 3 -20 12 -45 19 -57 19 -30 136 -103 191 -120 45 -13 51
-13 142 16 52 17 97 28 100 26 12 -13 -117 -171 -148 -181 -19 -6 -145 -168
-174 -222 -9 -19 -25 -33 -38 -35 -19 -2 -22 -8 -20 -34 3 -26 -10 -49 -71
-130 -98 -130 -121 -153 -155 -160 -23 -5 -28 -10 -25 -27 2 -15 -15 -44 -56
-93 -57 -68 -63 -72 -113 -79 -29 -4 -47 -9 -40 -12 10 -4 10 -8 1 -19 -14
-18 -54 -18 -70 -1 -11 11 -24 10 -76 -4 -35 -10 -63 -15 -63 -13 0 3 20 53
44 112 24 59 49 124 55 145 7 20 21 42 32 47 13 8 18 17 14 33 -4 15 11 64 43
138 66 153 86 192 110 206 13 8 19 19 15 31 -3 12 13 50 41 98 64 112 98 191
92 212 -5 16 6 52 59 180 17 39 37 41 64 6z"/>
</g>
</svg>
