<svg version="1.0"
    xmlns="http://www.w3.org/2000/svg"
    width="840.000000pt"
    height="555.000000pt"
    viewBox="0 0 840.000000 555.000000"
    preserveAspectRatio="xMidYMid meet">

    <g transform="translate(0.000000,555.000000) scale(0.100000,-0.100000)"
        fill="#209CEE"
        stroke="none">
        <path d="M4312 5102 c-26 -26 -30 -86 -6 -120 19 -28 11 -56 -22 -71 -18 -8
-24 -17 -21 -29 3 -9 14 -39 23 -65 16 -45 16 -55 1 -144 -9 -52 -23 -103 -31
-112 -14 -16 -19 -50 -40 -294 -2 -20 -10 -45 -20 -55 -15 -18 -15 -20 4 -37
27 -25 25 -45 -5 -45 -32 0 -33 -27 -2 -41 21 -10 23 -15 17 -55 -4 -24 -15
-53 -24 -63 -14 -15 -21 -59 -34 -192 -12 -115 -21 -174 -30 -177 -16 -5 -15
-20 3 -38 20 -20 19 -48 -5 -234 -11 -85 -20 -159 -20 -163 0 -4 -12 -19 -27
-33 -25 -23 -25 -25 -8 -38 17 -12 17 -19 -9 -161 -14 -82 -30 -153 -35 -158
-5 -5 -7 -31 -4 -57 4 -37 2 -48 -10 -53 -21 -8 -238 10 -247 20 -4 4 -13 26
-20 48 -7 22 -25 61 -41 88 -31 50 -36 76 -18 94 8 8 2 13 -23 18 -43 10 -53
16 -38 25 9 5 -15 72 -85 241 -54 129 -116 275 -138 324 -23 50 -69 158 -102
240 -49 120 -65 150 -81 150 -10 0 -18 -4 -16 -10 10 -40 188 -553 224 -645
25 -63 63 -166 84 -227 33 -96 37 -116 27 -133 -18 -27 -16 -37 7 -43 27 -7
65 -94 49 -113 -9 -11 -8 -19 5 -32 27 -30 19 -42 -26 -42 -145 -1 -297 -68
-409 -179 -95 -95 -140 -183 -168 -325 -11 -54 -27 -109 -37 -123 -16 -25 -12
-34 19 -45 4 -2 3 -28 -3 -57 -6 -30 -7 -95 -4 -145 6 -90 4 -97 -105 -568
-143 -617 -150 -644 -173 -673 -11 -14 -30 -25 -43 -25 -29 0 -71 -33 -61 -48
16 -26 243 -71 287 -57 29 9 21 47 -14 63 -15 8 -33 25 -38 40 -9 24 27 230
191 1067 14 71 33 126 65 190 25 50 45 95 45 100 0 6 5 27 11 48 8 30 15 37
34 37 23 0 25 4 25 44 0 58 16 100 63 169 29 42 52 63 84 77 25 11 47 19 51
18 4 -1 22 2 40 6 59 14 172 -25 172 -59 0 -7 9 -20 20 -30 10 -9 27 -40 36
-69 74 -226 243 -376 489 -432 215 -49 642 0 841 96 76 37 154 117 179 185 10
28 29 62 41 77 38 47 49 96 48 213 0 130 -23 202 -83 266 -34 35 -43 39 -87
39 -53 0 -120 32 -108 51 4 6 1 15 -6 19 -18 11 23 76 61 96 22 11 28 20 24
33 -3 12 10 39 38 77 91 122 155 196 185 214 18 11 32 24 32 29 0 6 39 54 86
108 50 56 98 123 114 158 35 73 115 185 133 185 29 0 43 -115 36 -305 -16
-439 -21 -509 -38 -540 -10 -19 -16 -56 -17 -100 0 -38 -6 -131 -12 -205 -25
-289 -25 -293 -2 -318 17 -18 32 -22 79 -22 47 0 61 4 79 23 l22 24 -21 209
c-11 115 -24 243 -28 284 -4 41 -14 89 -23 105 -13 27 -14 63 -6 315 16 454
16 468 -7 528 -17 48 -18 56 -5 79 8 14 22 29 30 33 61 28 76 39 93 67 18 31
18 33 0 57 -24 34 -41 39 -65 21 -19 -13 -24 -12 -49 5 -15 11 -29 20 -32 20
-6 0 -21 -41 -37 -98 -9 -35 -18 -46 -45 -58 -19 -8 -46 -14 -59 -14 -14 0
-48 -9 -76 -20 -66 -26 -135 -26 -180 0 -19 12 -48 26 -64 33 -29 12 -86 108
-86 145 0 10 -13 31 -30 47 -46 44 -38 84 33 144 42 38 50 86 19 114 -26 23
-61 21 -70 -3 -7 -19 -9 -19 -27 -6 -11 9 -14 16 -7 16 6 0 12 9 12 19 0 14
-5 18 -21 14 -35 -10 -51 -47 -50 -118 1 -60 -1 -66 -27 -81 -15 -9 -43 -34
-63 -56 -29 -32 -48 -42 -110 -58 -143 -37 -233 -22 -287 48 l-27 35 0 306 c0
168 3 355 8 415 7 104 6 111 -19 165 -54 116 -55 125 -28 162 46 62 24 148
-30 119 -28 -15 -63 -6 -68 18 -3 15 -6 14 -26 -6z m114 -303 c16 -34 26 -162
13 -153 -21 13 -49 90 -49 137 0 53 16 60 36 16z m-28 -256 c5 -102 -10 -211
-33 -253 -19 -33 -18 -15 0 90 11 60 13 115 9 185 -5 83 -4 98 7 87 8 -8 15
-46 17 -109z m28 -551 c-12 -11 -126 86 -126 107 1 25 15 51 31 56 10 4 19 11
19 17 0 5 8 22 19 36 10 15 27 56 37 92 l19 65 3 -184 c1 -101 0 -186 -2 -189z
m-117 272 c7 -6 -21 -34 -35 -34 -17 0 -27 17 -20 36 4 11 13 13 28 8 13 -3
25 -8 27 -10z m33 -29 c0 -5 -5 -11 -11 -13 -6 -2 -11 4 -11 13 0 9 5 15 11
13 6 -2 11 -8 11 -13z m39 -283 l58 -58 -5 -55 c-4 -30 -15 -74 -25 -98 -14
-32 -17 -57 -13 -95 3 -28 -2 -120 -10 -205 -29 -279 -25 -294 72 -297 55 -1
63 1 77 22 14 21 14 40 0 186 -9 90 -20 191 -25 225 -6 35 -8 74 -4 87 3 15
-3 43 -15 71 -23 51 -28 105 -10 105 6 0 23 -9 38 -20 52 -36 156 -50 235 -29
107 27 149 44 163 66 32 48 23 12 -18 -76 -23 -50 -52 -97 -65 -105 -12 -9
-25 -26 -29 -38 -4 -13 -22 -61 -40 -108 -18 -47 -39 -99 -45 -117 -7 -18 -20
-35 -30 -38 -16 -5 -17 -10 -8 -36 12 -35 3 -64 -73 -226 -33 -71 -55 -106
-72 -114 -18 -8 -22 -17 -20 -37 5 -31 -126 -306 -150 -315 -8 -3 -17 -24 -21
-46 -5 -35 -10 -41 -30 -41 -26 0 -132 37 -153 53 -17 13 -16 45 2 97 9 25 12
47 6 54 -5 6 -5 39 0 76 5 36 9 104 10 153 2 77 4 87 21 87 22 0 22 4 1 36
-15 24 -15 35 1 167 27 221 38 273 59 269 22 -4 21 0 -3 46 -16 30 -18 38 -6
40 29 6 64 290 43 350 -15 41 23 25 84 -36z m698 -138 c11 -14 23 -42 27 -63
3 -20 12 -45 19 -57 19 -30 136 -103 191 -120 45 -13 51 -13 142 16 52 17 97
28 100 26 12 -13 -117 -171 -148 -181 -19 -6 -145 -168 -174 -222 -9 -19 -25
-33 -38 -35 -19 -2 -22 -8 -20 -34 3 -26 -10 -49 -71 -130 -98 -130 -121 -153
-155 -160 -23 -5 -28 -10 -25 -27 2 -12 -4 -31 -14 -42 -10 -11 -37 -43 -60
-71 -39 -46 -48 -52 -95 -59 -29 -4 -47 -9 -40 -12 10 -4 10 -8 1 -19 -14 -18
-54 -18 -70 -1 -11 11 -24 10 -76 -4 -35 -10 -63 -15 -63 -13 0 3 20 53 44
112 24 59 49 124 55 145 7 20 21 42 32 47 13 8 18 17 14 33 -4 15 11 64 43
138 66 153 86 192 110 206 13 8 19 19 15 31 -3 12 13 50 41 98 64 112 98 191
92 212 -5 16 6 52 59 180 17 39 37 41 64 6z m-849 -191 c0 -16 -36 -17 -45 -3
-4 6 -4 18 -1 26 5 12 9 12 26 2 11 -7 20 -18 20 -25z m-90 -540 c0 -5 -5 -15
-10 -23 -8 -12 -10 -11 -10 8 0 12 5 22 10 22 6 0 10 -3 10 -7z m-485 -212
c19 -38 -2 -48 -29 -13 -16 20 -17 25 -5 33 19 12 16 13 34 -20z m905 -321
c13 -9 13 -11 0 -20 -8 -5 -19 -10 -25 -10 -19 0 -38 18 -31 29 9 14 36 14 56
1z m600 -136 c8 -24 9 -39 2 -46 -11 -11 -22 5 -42 56 -8 22 -7 26 9 26 13 0
23 -11 31 -36z m-2353 -1958 c9 -9 -36 -7 -81 3 -67 16 -60 29 9 16 36 -7 69
-16 72 -19z"/>
    </g>
</svg>
